# xmcd CD database file
#
# Track frame offsets:
#	150
#	22530
#	40641
#	64639
#	81693
#	102502
#	122606
#	141729
#	162529
#	181743
#	201572
#	220515
#
# Disc length: 3190 seconds
#
# Revision: 0
# Processed by: cddbd v1.5.1PL0 Copyright (c) Steve Scherf et al.
# Submitted via: CDex 1.51
#
DISCID=a90c740c
DTITLE=Various Artist - Los Mejores Del Merengue
DYEAR=2001
DGENRE=Merengue
TTITLE0=Pégame Tu Vicio - Eddy Herrera
TTITLE1=Es Mentiroso - Olga Tañón
TTITLE2=Tu Va Vei - Toño Rosario
TTITLE3=El Gallito - Oro Sólido
TTITLE4=Nueva York Pasando Lista - Kinito Méndez
TTITLE5=Taquicardia - Rikarena
TTITLE6=La Adicción - Manikomi
TTITLE7=Olvídala - Darlyn y Los Herederos
TTITLE8=El Bla! Bla! Bla! - Wilfrido Vargas
TTITLE9=Tu Fotographía - Zafra Negra
TTITLE10=El Disc Jockey - Wilfrido Vargas
TTITLE11=Pasacantando - Alex Bueno
EXTD=YEAR: 2001
EXTT0=
EXTT1=
EXTT2=
EXTT3=
EXTT4=
EXTT5=
EXTT6=
EXTT7=
EXTT8=
EXTT9=
EXTT10=
EXTT11=
PLAYORDER=
